<svg xmlns="http://www.w3.org/2000/svg" width="1440" height="960" viewBox="0 0 1440 960" role="img" aria-labelledby="title desc">
  <title id="title">Relayward UI v2 - 节点</title>
  <desc id="desc">Relayward UI v2 desktop concept mockup</desc>
  <style>
    text { font-family: -apple-system, BlinkMacSystemFont, "Segoe UI", "Noto Sans SC", "Microsoft YaHei", Arial, sans-serif; letter-spacing: 0; }
    .label { font-size: 12px; fill: #69767D; }
    .body { font-size: 13px; fill: #17231E; }
    .small { font-size: 11px; fill: #69767D; }
    .mono { font-family: "SFMono-Regular", Consolas, monospace; }
  </style>
  <rect x="0" y="0" width="1440" height="960" rx="0" fill="#F4F6F7" /><rect x="0" y="0" width="236" height="960" rx="0" fill="#FBFCFD" />
    <line x1="235.5" y1="0" x2="235.5" y2="960" stroke="#DDE3E6" stroke-width="1"/>
    <rect x="20" y="20" width="32" height="32" rx="7" fill="#17231E" /><text x="36" y="42" font-size="17" fill="#FFFFFF" font-weight="750" text-anchor="middle" >R</text>
    <text x="64" y="40" font-size="17" fill="#17231E" font-weight="700" text-anchor="start" >Relayward</text>
    <text x="64" y="54" font-size="8" fill="#98A3A8" font-weight="700" text-anchor="start" >CONTROL PLANE</text>
    <line x1="20" y1="78" x2="216" y2="78" stroke="#E9EDF0" stroke-width="1"/>


      <g transform="translate(26 99) scale(0.75)" fill="none" stroke="#69767D" stroke-width="1.8" stroke-linecap="round" stroke-linejoin="round"><rect x="3" y="3" width="7" height="7"/><rect x="14" y="3" width="7" height="7"/><rect x="3" y="14" width="7" height="7"/><rect x="14" y="14" width="7" height="7"/></g>
      <text x="56" y="113" font-size="13" fill="#17231E" font-weight="500" text-anchor="start" >系统概览</text>
<text x="24" y="174" font-size="10" fill="#98A3A8" font-weight="700" text-anchor="start" style="text-transform:uppercase">资源管理</text>
<rect x="12" y="173" width="212" height="36" rx="6" fill="#EAF2F8" />
      <rect x="12" y="173" width="3" height="36" rx="2" fill="#356F9F" />
      <g transform="translate(26 181) scale(0.75)" fill="none" stroke="#2B5C86" stroke-width="1.8" stroke-linecap="round" stroke-linejoin="round"><rect x="3" y="4" width="18" height="6" rx="2"/><rect x="3" y="14" width="18" height="6" rx="2"/><path d="M7 7h.01M7 17h.01M11 7h7M11 17h7"/></g>
      <text x="56" y="195" font-size="13" fill="#2B5C86" font-weight="650" text-anchor="start" >节点</text>


      <g transform="translate(26 221) scale(0.75)" fill="none" stroke="#69767D" stroke-width="1.8" stroke-linecap="round" stroke-linejoin="round"><path d="M16 21v-2a4 4 0 0 0-4-4H6a4 4 0 0 0-4 4v2"/><circle cx="9" cy="7" r="4"/><path d="M22 21v-2a4 4 0 0 0-3-3.87M16 3.13a4 4 0 0 1 0 7.75"/></g>
      <text x="56" y="235" font-size="13" fill="#17231E" font-weight="500" text-anchor="start" >用户</text>


      <g transform="translate(26 261) scale(0.75)" fill="none" stroke="#69767D" stroke-width="1.8" stroke-linecap="round" stroke-linejoin="round"><path d="M12 22s8-4 8-10V5l-8-3-8 3v7c0 6 8 10 8 10z"/><path d="m9 12 2 2 4-4"/></g>
      <text x="56" y="275" font-size="13" fill="#17231E" font-weight="500" text-anchor="start" >授权</text>
<text x="24" y="336" font-size="10" fill="#98A3A8" font-weight="700" text-anchor="start" style="text-transform:uppercase">扩展能力</text>


      <g transform="translate(26 343) scale(0.75)" fill="none" stroke="#69767D" stroke-width="1.8" stroke-linecap="round" stroke-linejoin="round"><path d="M12 2v4M12 18v4M4.93 4.93l2.83 2.83M16.24 16.24l2.83 2.83M2 12h4M18 12h4M4.93 19.07l2.83-2.83M16.24 7.76l2.83-2.83"/><circle cx="12" cy="12" r="4"/></g>
      <text x="56" y="357" font-size="13" fill="#17231E" font-weight="500" text-anchor="start" >插件</text>
<text x="24" y="418" font-size="10" fill="#98A3A8" font-weight="700" text-anchor="start" style="text-transform:uppercase">观测与记录</text>


      <g transform="translate(26 425) scale(0.75)" fill="none" stroke="#69767D" stroke-width="1.8" stroke-linecap="round" stroke-linejoin="round"><path d="M3 12h4l2-7 4 14 2-7h6"/></g>
      <text x="56" y="439" font-size="13" fill="#17231E" font-weight="500" text-anchor="start" >最近事件</text>


      <g transform="translate(26 465) scale(0.75)" fill="none" stroke="#69767D" stroke-width="1.8" stroke-linecap="round" stroke-linejoin="round"><path d="M4 4h16v16H4z"/><path d="M8 9h8M8 13h8M8 17h5"/></g>
      <text x="56" y="479" font-size="13" fill="#17231E" font-weight="500" text-anchor="start" >审计日志</text>
<text x="24" y="540" font-size="10" fill="#98A3A8" font-weight="700" text-anchor="start" style="text-transform:uppercase">系统</text>


      <g transform="translate(26 547) scale(0.75)" fill="none" stroke="#69767D" stroke-width="1.8" stroke-linecap="round" stroke-linejoin="round"><path d="m3 11 18-5v12L3 14z"/><path d="M11.6 16.6 13 22H7l-1.4-7"/></g>
      <text x="56" y="561" font-size="13" fill="#17231E" font-weight="500" text-anchor="start" >订阅公告</text>


      <g transform="translate(26 587) scale(0.75)" fill="none" stroke="#69767D" stroke-width="1.8" stroke-linecap="round" stroke-linejoin="round"><rect x="4" y="10" width="16" height="11" rx="2"/><path d="M8 10V7a4 4 0 0 1 8 0v3M12 14v3"/></g>
      <text x="56" y="601" font-size="13" fill="#17231E" font-weight="500" text-anchor="start" >安全设置</text>
    <rect x="16" y="878" width="204" height="58" rx="6" fill="#F7F9FA" stroke="#DDE3E6" />
    <circle cx="42" cy="907" r="15" fill="#17231E"/><text x="42" y="912" font-size="13" fill="#FFFFFF" font-weight="700" text-anchor="middle" >A</text>
    <text x="66" y="903" font-size="12" fill="#17231E" font-weight="650" text-anchor="start" >admin</text><text x="66" y="920" font-size="10" fill="#69767D" font-weight="400" text-anchor="start" >管理员</text>
    <g transform="translate(188 896) scale(0.75)" fill="none" stroke="#69767D" stroke-width="1.8" stroke-linecap="round" stroke-linejoin="round"><path d="M10 17l5-5-5-5M15 12H3M15 3h6v18h-6"/></g><rect x="236" y="0" width="1204" height="64" rx="0" fill="#FFFFFF" /><line x1="236" y1="63.5" x2="1440" y2="63.5" stroke="#DDE3E6" stroke-width="1"/>
    <text x="276" y="38" font-size="13" fill="#69767D" font-weight="500" text-anchor="start" >资源管理 / 节点</text>
    <rect x="1130" y="20" width="66" height="24" rx="12" fill="#F0F3F5" /><text x="1163" y="36" font-size="11" fill="#69767D" font-weight="600" text-anchor="middle" >v0.1.1</text>
    <g transform="translate(1218 23) scale(0.7083333333333334)" fill="none" stroke="#69767D" stroke-width="1.8" stroke-linecap="round" stroke-linejoin="round"><circle cx="12" cy="12" r="9"/><path d="M3 12h18M12 3a15 15 0 0 1 0 18M12 3a15 15 0 0 0 0 18"/></g><text x="1242" y="37" font-size="12" fill="#17231E" font-weight="500" text-anchor="start" >简体中文</text>
    <line x1="1328" y1="18" x2="1328" y2="46" stroke="#E9EDF0" stroke-width="1"/>
    <circle cx="1360" cy="32" r="16" fill="#EAF2F8"/><text x="1360" y="37" font-size="12" fill="#2B5C86" font-weight="700" text-anchor="middle" >管</text><text x="276" y="106" font-size="25" fill="#17231E" font-weight="700" text-anchor="start" >节点</text>
    <text x="276" y="132" font-size="12" fill="#69767D" font-weight="400" text-anchor="start" >集中管理 Agent 注册、运行状态和版本更新</text>
    <rect x="1284" y="91" width="96" height="36" rx="6" fill="#356F9F" stroke="#356F9F" /><g transform="translate(1296 100) scale(0.7083333333333334)" fill="none" stroke="#FFFFFF" stroke-width="1.8" stroke-linecap="round" stroke-linejoin="round"><path d="M12 5v14M5 12h14"/></g><text x="1339.5" y="114" font-size="13" fill="#FFFFFF" font-weight="600" text-anchor="middle" >添加节点</text><rect x="276" y="158" width="1124" height="78" rx="7" fill="#FFFFFF" stroke="#DDE3E6" /><circle cx="306" cy="188" r="4" fill="#16875A"/><text x="316" y="192" font-size="12" fill="#17231E" font-weight="500" text-anchor="start" >2 个在线节点</text><text x="455" y="196" font-size="11" fill="#69767D" font-weight="400" text-anchor="start" >离线</text><text x="497" y="196" font-size="13" fill="#17231E" font-weight="650" text-anchor="start" >0</text><line x1="540" y1="177" x2="540" y2="217" stroke="#E9EDF0" stroke-width="1"/><text x="566" y="190" font-size="10" fill="#69767D" font-weight="400" text-anchor="start" >Agent 版本</text><text x="566" y="209" font-size="13" fill="#17231E" font-weight="650" text-anchor="start" >v0.1.0</text><text x="680" y="190" font-size="10" fill="#69767D" font-weight="400" text-anchor="start" >待更新</text><text x="680" y="209" font-size="13" fill="#17231E" font-weight="650" text-anchor="start" >0</text><rect x="1040" y="178" width="214" height="36" rx="6" fill="#F4F6F7" stroke="#DDE3E6" /><g transform="translate(1052 187) scale(0.7083333333333334)" fill="none" stroke="#69767D" stroke-width="1.8" stroke-linecap="round" stroke-linejoin="round"><circle cx="11" cy="11" r="7"/><path d="m20 20-4-4"/></g><text x="1078" y="201" font-size="11" fill="#98A3A8" font-weight="400" text-anchor="start" >搜索节点</text><rect x="1264" y="178" width="116" height="36" rx="6" fill="#FFFFFF" stroke="#DDE3E6" /><g transform="translate(1276 187) scale(0.7083333333333334)" fill="none" stroke="#17231E" stroke-width="1.8" stroke-linecap="round" stroke-linejoin="round"><path d="M4 5h16M7 12h10M10 19h4"/></g><text x="1329.5" y="201" font-size="13" fill="#17231E" font-weight="600" text-anchor="middle" >筛选</text><rect x="276" y="254" width="1124" height="360" rx="7" fill="#FFFFFF" stroke="#DDE3E6" /><rect x="276" y="254" width="1124" height="42" rx="7" fill="#F8FAFB" /><line x1="276" y1="296" x2="1400" y2="296" stroke="#DDE3E6" stroke-width="1"/><text x="296" y="280" font-size="11" fill="#69767D" font-weight="650" text-anchor="start" >节点</text><text x="526" y="280" font-size="11" fill="#69767D" font-weight="650" text-anchor="start" >公网地址</text><text x="736" y="280" font-size="11" fill="#69767D" font-weight="650" text-anchor="start" >Agent</text><text x="866" y="280" font-size="11" fill="#69767D" font-weight="650" text-anchor="start" >策略</text><text x="1016" y="280" font-size="11" fill="#69767D" font-weight="650" text-anchor="start" >资源</text><text x="1191" y="280" font-size="11" fill="#69767D" font-weight="650" text-anchor="start" >最后心跳</text><text x="1346" y="280" font-size="11" fill="#69767D" font-weight="650" text-anchor="start" >操作</text><line x1="276" y1="374" x2="1400" y2="374" stroke="#E9EDF0" stroke-width="1"/><line x1="276" y1="452" x2="1400" y2="452" stroke="#E9EDF0" stroke-width="1"/><line x1="276" y1="530" x2="1400" y2="530" stroke="#E9EDF0" stroke-width="1"/><line x1="276" y1="608" x2="1400" y2="608" stroke="#E9EDF0" stroke-width="1"/><circle cx="302" cy="334" r="16" fill="#EAF2F8"/><g transform="translate(294 326) scale(0.6666666666666666)" fill="none" stroke="#356F9F" stroke-width="1.8" stroke-linecap="round" stroke-linejoin="round"><rect x="3" y="4" width="18" height="6" rx="2"/><rect x="3" y="14" width="18" height="6" rx="2"/><path d="M7 7h.01M7 17h.01M11 7h7M11 17h7"/></g><text x="326" y="331" font-size="12" fill="#17231E" font-weight="650" text-anchor="start" >SixtyNet</text><text x="326" y="349" font-size="10" fill="#69767D" font-weight="400" text-anchor="start" >东京 · Debian 12</text><text x="526" y="336" font-size="11" fill="#17231E" font-weight="500" text-anchor="start" >45.76.12.18</text><circle cx="744" cy="335" r="4" fill="#16875A"/><text x="754" y="339" font-size="12" fill="#17231E" font-weight="500" text-anchor="start" >v0.1.0</text><rect x="866" y="321" width="68" height="24" rx="12" fill="#E9F5EF" /><text x="900" y="337" font-size="11" fill="#0D6843" font-weight="600" text-anchor="middle" >已同步</text><text x="1016" y="336" font-size="11" fill="#69767D" font-weight="400" text-anchor="start" >CPU 36% · 368 MB</text><text x="1191" y="336" font-size="11" fill="#69767D" font-weight="400" text-anchor="start" >刚刚</text><g transform="translate(1360 324) scale(0.75)" fill="none" stroke="#69767D" stroke-width="1.8" stroke-linecap="round" stroke-linejoin="round"><circle cx="5" cy="12" r="1" fill="currentColor" stroke="none"/><circle cx="12" cy="12" r="1" fill="currentColor" stroke="none"/><circle cx="19" cy="12" r="1" fill="currentColor" stroke="none"/></g><circle cx="302" cy="412" r="16" fill="#EAF2F8"/><g transform="translate(294 404) scale(0.6666666666666666)" fill="none" stroke="#356F9F" stroke-width="1.8" stroke-linecap="round" stroke-linejoin="round"><rect x="3" y="4" width="18" height="6" rx="2"/><rect x="3" y="14" width="18" height="6" rx="2"/><path d="M7 7h.01M7 17h.01M11 7h7M11 17h7"/></g><text x="326" y="409" font-size="12" fill="#17231E" font-weight="650" text-anchor="start" >VIRCS</text><text x="326" y="427" font-size="10" fill="#69767D" font-weight="400" text-anchor="start" >香港 · Alpine 3.20</text><text x="526" y="414" font-size="11" fill="#17231E" font-weight="500" text-anchor="start" >82.139.194.208</text><circle cx="744" cy="413" r="4" fill="#16875A"/><text x="754" y="417" font-size="12" fill="#17231E" font-weight="500" text-anchor="start" >v0.1.0</text><rect x="866" y="399" width="68" height="24" rx="12" fill="#E9F5EF" /><text x="900" y="415" font-size="11" fill="#0D6843" font-weight="600" text-anchor="middle" >已同步</text><text x="1016" y="414" font-size="11" fill="#69767D" font-weight="400" text-anchor="start" >CPU 58% · 412 MB</text><text x="1191" y="414" font-size="11" fill="#69767D" font-weight="400" text-anchor="start" >8 秒前</text><g transform="translate(1360 402) scale(0.75)" fill="none" stroke="#69767D" stroke-width="1.8" stroke-linecap="round" stroke-linejoin="round"><circle cx="5" cy="12" r="1" fill="currentColor" stroke="none"/><circle cx="12" cy="12" r="1" fill="currentColor" stroke="none"/><circle cx="19" cy="12" r="1" fill="currentColor" stroke="none"/></g><circle cx="302" cy="490" r="16" fill="#F0F3F5"/><g transform="translate(294 482) scale(0.6666666666666666)" fill="none" stroke="#69767D" stroke-width="1.8" stroke-linecap="round" stroke-linejoin="round"><rect x="3" y="4" width="18" height="6" rx="2"/><rect x="3" y="14" width="18" height="6" rx="2"/><path d="M7 7h.01M7 17h.01M11 7h7M11 17h7"/></g><text x="326" y="487" font-size="12" fill="#17231E" font-weight="650" text-anchor="start" >Edge Lab</text><text x="326" y="505" font-size="10" fill="#69767D" font-weight="400" text-anchor="start" >新加坡 · Debian 12</text><text x="526" y="492" font-size="11" fill="#98A3A8" font-weight="500" text-anchor="start" >未设置</text><rect x="724" y="477" width="70" height="24" rx="12" fill="#FFF4E4" /><text x="759" y="493" font-size="11" fill="#B76A12" font-weight="600" text-anchor="middle" >未注册</text><rect x="866" y="477" width="68" height="24" rx="12" fill="#FFF4E4" /><text x="900" y="493" font-size="11" fill="#B76A12" font-weight="600" text-anchor="middle" >待下发</text><text x="1016" y="492" font-size="11" fill="#69767D" font-weight="400" text-anchor="start" >未报告</text><text x="1191" y="492" font-size="11" fill="#69767D" font-weight="400" text-anchor="start" >从未</text><g transform="translate(1360 480) scale(0.75)" fill="none" stroke="#69767D" stroke-width="1.8" stroke-linecap="round" stroke-linejoin="round"><circle cx="5" cy="12" r="1" fill="currentColor" stroke="none"/><circle cx="12" cy="12" r="1" fill="currentColor" stroke="none"/><circle cx="19" cy="12" r="1" fill="currentColor" stroke="none"/></g><circle cx="302" cy="568" r="16" fill="#F0F3F5"/><g transform="translate(294 560) scale(0.6666666666666666)" fill="none" stroke="#69767D" stroke-width="1.8" stroke-linecap="round" stroke-linejoin="round"><rect x="3" y="4" width="18" height="6" rx="2"/><rect x="3" y="14" width="18" height="6" rx="2"/><path d="M7 7h.01M7 17h.01M11 7h7M11 17h7"/></g><text x="326" y="565" font-size="12" fill="#17231E" font-weight="650" text-anchor="start" >Archive</text><text x="326" y="583" font-size="10" fill="#69767D" font-weight="400" text-anchor="start" >法兰克福 · Debian 12</text><text x="526" y="570" font-size="11" fill="#17231E" font-weight="500" text-anchor="start" >91.107.24.6</text><rect x="724" y="555" width="70" height="24" rx="12" fill="#F0F3F5" /><text x="759" y="571" font-size="11" fill="#69767D" font-weight="600" text-anchor="middle" >v0.0.9</text><rect x="866" y="555" width="68" height="24" rx="12" fill="#F0F3F5" /><text x="900" y="571" font-size="11" fill="#69767D" font-weight="600" text-anchor="middle" >已暂停</text><text x="1016" y="570" font-size="11" fill="#69767D" font-weight="400" text-anchor="start" >CPU 12% · 284 MB</text><text x="1191" y="570" font-size="11" fill="#C63D3D" font-weight="400" text-anchor="start" >2 天前</text><g transform="translate(1360 558) scale(0.75)" fill="none" stroke="#69767D" stroke-width="1.8" stroke-linecap="round" stroke-linejoin="round"><circle cx="5" cy="12" r="1" fill="currentColor" stroke="none"/><circle cx="12" cy="12" r="1" fill="currentColor" stroke="none"/><circle cx="19" cy="12" r="1" fill="currentColor" stroke="none"/></g><rect x="276" y="636" width="550" height="220" rx="7" fill="#FFFFFF" stroke="#DDE3E6" /><text x="296" y="668" font-size="14" fill="#17231E" font-weight="650" text-anchor="start" >Agent 更新策略</text><text x="296" y="691" font-size="11" fill="#69767D" font-weight="400" text-anchor="start" >保持节点组件版本一致，并记录每次回滚结果</text><rect x="296" y="722" width="72" height="24" rx="12" fill="#EAF2F8" /><text x="332" y="738" font-size="11" fill="#2B5C86" font-weight="600" text-anchor="middle" >稳定通道</text><text x="386" y="738" font-size="12" fill="#17231E" font-weight="600" text-anchor="start" >自动检查更新</text><text x="386" y="757" font-size="10" fill="#69767D" font-weight="400" text-anchor="start" >仅在管理员下发后安装</text><rect x="296" y="792" width="104" height="36" rx="6" fill="#FFFFFF" stroke="#DDE3E6" /><g transform="translate(308 801) scale(0.7083333333333334)" fill="none" stroke="#17231E" stroke-width="1.8" stroke-linecap="round" stroke-linejoin="round"><path d="M12 20h9M16.5 3.5a2.12 2.12 0 0 1 3 3L8 18l-4 1 1-4z"/></g><text x="355.5" y="815" font-size="13" fill="#17231E" font-weight="600" text-anchor="middle" >管理策略</text><rect x="850" y="636" width="550" height="220" rx="7" fill="#FFFFFF" stroke="#DDE3E6" /><text x="870" y="668" font-size="14" fill="#17231E" font-weight="650" text-anchor="start" >注册状态</text><text x="870" y="691" font-size="11" fill="#69767D" font-weight="400" text-anchor="start" >注册令牌仅展示一次，过期后需要重新签发</text><text x="870" y="731" font-size="11" fill="#69767D" font-weight="400" text-anchor="start" >已注册</text><text x="870" y="759" font-size="24" fill="#17231E" font-weight="700" text-anchor="start" >2</text><text x="1014" y="731" font-size="11" fill="#69767D" font-weight="400" text-anchor="start" >待注册</text><text x="1014" y="759" font-size="24" fill="#17231E" font-weight="700" text-anchor="start" >1</text><text x="1158" y="731" font-size="11" fill="#69767D" font-weight="400" text-anchor="start" >凭据已吊销</text><text x="1158" y="759" font-size="24" fill="#17231E" font-weight="700" text-anchor="start" >1</text><rect x="1256" y="792" width="124" height="36" rx="6" fill="#FFFFFF" stroke="#DDE3E6" /><g transform="translate(1268 801) scale(0.7083333333333334)" fill="none" stroke="#17231E" stroke-width="1.8" stroke-linecap="round" stroke-linejoin="round"><circle cx="8" cy="15" r="4"/><path d="m11 12 9-9M15 7l2 2M18 4l2 2"/></g><text x="1325.5" y="815" font-size="13" fill="#17231E" font-weight="600" text-anchor="middle" >签发令牌</text>
</svg>
